# xmcd CD database file
#
# Track frame offsets:
#	165
#	22083
#	44882
#	65360
#	80124
#	97989
#	123372
#	139081
#	156955
#	175004
#	190547
#	213908
#	233582
#
# Disc length: 3401 seconds
#
# Revision: 0
# Processed by: cddbd v1.5PL3 Copyright (c) Steve Scherf et al.
# Submitted via: CDex 1.51
#
DISCID=ae0d470d
DTITLE=DAVID ELAN - DIVER SITY
DYEAR=1900
DGENRE=Rock
TTITLE0=This Is Our Night
TTITLE1=Don't Go
TTITLE2=Walkin' On Ice
TTITLE3=Let Go
TTITLE4=Take The Hand
TTITLE5=Red Rose
TTITLE6=Cross My Heart
TTITLE7=Be Bop A-Lula
TTITLE8=Ain't This Love Insane
TTITLE9=Lovers Never Say Goodbye
TTITLE10=She's Hot
TTITLE11=Love Pretender
TTITLE12=We'll Show The World
EXTD=
EXTT0=
EXTT1=
EXTT2=
EXTT3=
EXTT4=
EXTT5=
EXTT6=
EXTT7=
EXTT8=
EXTT9=
EXTT10=
EXTT11=
EXTT12=
PLAYORDER=
